<?xml version="1.0" standalone="no"?>
<!DOCTYPE svg PUBLIC "-//W3C//DTD SVG 1.1//EN" "http://www.w3.org/Graphics/SVG/1.1/DTD/svg11.dtd">
<svg xmlns:xlink="http://www.w3.org/1999/xlink" version="1.1" xml:lang="en" viewBox="-250 -250 500 500" id="knot" xmlns="http://www.w3.org/2000/svg">
  <defs>
    <style type="text/css"><![CDATA[
      .top, .bottom { stroke-width: 25px; fill: none; }
      .a { stroke: rgb(174, 142, 216); }
      .white { stroke-width: 30px; fill: none; stroke: rgb(255, 255, 255); }
      .a.top { stroke-dasharray: 40, 43, 238, 58, 44, 68, 73, 58; stroke-dashoffset: -10; }
      .a.top.white { stroke-dasharray: 38, 45, 236, 60, 42, 70, 71, 60; stroke-dashoffset: -11; }
    ]]></style>
    <path id="path-a" d="M 20.711 50.0 L 132.844 50.0 A 50 50 45 0 1 182.844 0.0 A 50 50 45 0 1 132.844 -50.0 L 20.711 -50.0 L -20.711 -91.422 L -50.0 -91.422 A 41.422 41.422 0 0 0 -91.422 -50.0 L -91.422 -20.711 L -50.0 20.711 L -50.0 132.844 A 50 50 45 0 1 0.0 182.844 A 50 50 45 0 1 50.0 132.844 L 50.0 20.711 L 91.422 -20.711 L 91.422 -50.0 A 41.422 41.422 0 0 0 50.0 -91.422 L 20.711 -91.422 L -20.711 -50.0 L -132.844 -50.0 A 50 50 45 0 1 -182.844 0.0 A 50 50 45 0 1 -132.844 50.0 L -20.711 50.0 L 20.711 91.422 L 50.0 91.422 A 41.422 41.422 0 0 0 91.422 50.0 L 91.422 20.711 L 50.0 -20.711 L 50.0 -132.844 A 50 50 45 0 1 0.0 -182.844 A 50 50 45 0 1 -50.0 -132.844 L -50.0 -20.711 L -91.422 20.711 L -91.422 50.0 A 41.422 41.422 0 0 0 -50.0 91.422 L -20.711 91.422 Z"/>
  </defs>
  <use xlink:href="#path-a" class="a bottom white"/>
  <use xlink:href="#path-a" class="a bottom"/>
  <use xlink:href="#path-a" class="a top white"/>
  <use xlink:href="#path-a" class="a top"/>
</svg>
