<?xml version="1.0" encoding="UTF-8" standalone="no"?>
<svg
   xmlns:dc="http://purl.org/dc/elements/1.1/"
   xmlns:cc="http://creativecommons.org/ns#"
   xmlns:rdf="http://www.w3.org/1999/02/22-rdf-syntax-ns#"
   xmlns:svg="http://www.w3.org/2000/svg"
   xmlns="http://www.w3.org/2000/svg"
   xmlns:sodipodi="http://sodipodi.sourceforge.net/DTD/sodipodi-0.dtd"
   xmlns:inkscape="http://www.inkscape.org/namespaces/inkscape"
   version="1.1"
   xml:lang="en"
   viewBox="-250 -250 500 500"
   id="knot"
   inkscape:version="0.91 r13725"
   sodipodi:docname="tricircle_solid.svg">
  <metadata
     id="metadata21">
    <rdf:RDF>
      <cc:Work
         rdf:about="">
        <dc:format>image/svg+xml</dc:format>
        <dc:type
           rdf:resource="http://purl.org/dc/dcmitype/StillImage" />
      </cc:Work>
    </rdf:RDF>
  </metadata>
  <sodipodi:namedview
     pagecolor="#ffffff"
     bordercolor="#666666"
     borderopacity="1"
     objecttolerance="10"
     gridtolerance="10"
     guidetolerance="10"
     inkscape:pageopacity="0"
     inkscape:pageshadow="2"
     inkscape:window-width="1187"
     inkscape:window-height="664"
     id="namedview19"
     showgrid="false"
     inkscape:zoom="0.44785584"
     inkscape:cx="662.56413"
     inkscape:cy="431.41486"
     inkscape:window-x="0"
     inkscape:window-y="46"
     inkscape:window-maximized="0"
     inkscape:current-layer="knot" />
  <defs
     id="defs3">
    <style
       id="style5">
      .top, .bottom { stroke-width: 20px; fill: none; }
      .a, .b { stroke: #EAB554; }
      .white { stroke-width: 25px; fill: none; stroke: #000; }
      .b.top { stroke-dasharray: 107.287,107.287; stroke-dashoffset: -160.931; }
      .b.top.white { stroke-dasharray: 105.287,109.287; stroke-dashoffset: -161.931; }
    </style>
  </defs>
  <path
     style="color:#000000;font-style:normal;font-variant:normal;font-weight:normal;font-stretch:normal;font-size:medium;line-height:normal;font-family:sans-serif;text-indent:0;text-align:start;text-decoration:none;text-decoration-line:none;text-decoration-style:solid;text-decoration-color:#000000;letter-spacing:normal;word-spacing:normal;text-transform:none;direction:ltr;block-progression:tb;writing-mode:lr-tb;baseline-shift:baseline;text-anchor:start;white-space:normal;clip-rule:nonzero;display:inline;overflow:visible;visibility:visible;opacity:1;isolation:auto;mix-blend-mode:normal;color-interpolation:sRGB;color-interpolation-filters:linearRGB;solid-color:#000000;solid-opacity:1;fill:#000000;fill-opacity:1;fill-rule:nonzero;stroke:none;stroke-width:25px;stroke-linecap:butt;stroke-linejoin:miter;stroke-miterlimit:4;stroke-dasharray:none;stroke-dashoffset:0;stroke-opacity:1;color-rendering:auto;image-rendering:auto;shape-rendering:auto;text-rendering:auto;enable-background:accumulate"
     d="m 1000,-1114.9512 c -63.33818,0 -114.95117,51.613 -114.95117,114.9512 0,63.33818 51.61299,114.95117 114.95117,114.95117 63.3382,0 114.9512,-51.61299 114.9512,-114.95117 0,-63.3382 -51.613,-114.9512 -114.9512,-114.9512 z m 0,25 c 49.8272,0 89.9512,40.124 89.9512,89.9512 0,49.82718 -40.124,89.95117 -89.9512,89.95117 -49.82718,0 -89.95117,-40.12399 -89.95117,-89.95117 0,-49.8272 40.12399,-89.9512 89.95117,-89.9512 z"
     id="circle7"
     inkscape:connector-curvature="0" />
  <path
     style="color:#000000;font-style:normal;font-variant:normal;font-weight:normal;font-stretch:normal;font-size:medium;line-height:normal;font-family:sans-serif;text-indent:0;text-align:start;text-decoration:none;text-decoration-line:none;text-decoration-style:solid;text-decoration-color:#000000;letter-spacing:normal;word-spacing:normal;text-transform:none;direction:ltr;block-progression:tb;writing-mode:lr-tb;baseline-shift:baseline;text-anchor:start;white-space:normal;clip-rule:nonzero;display:inline;overflow:visible;visibility:visible;opacity:1;isolation:auto;mix-blend-mode:normal;color-interpolation:sRGB;color-interpolation-filters:linearRGB;solid-color:#000000;solid-opacity:1;fill:#eab554;fill-opacity:1;fill-rule:nonzero;stroke:none;stroke-width:20px;stroke-linecap:butt;stroke-linejoin:miter;stroke-miterlimit:4;stroke-dasharray:none;stroke-dashoffset:0;stroke-opacity:1;color-rendering:auto;image-rendering:auto;shape-rendering:auto;text-rendering:auto;enable-background:accumulate"
     d="m 500,-1112.4512 c -61.98708,0 -112.45117,50.4641 -112.45117,112.4512 0,61.98708 50.46409,112.45117 112.45117,112.45117 61.98708,0 112.45117,-50.46409 112.45117,-112.45117 0,-61.9871 -50.46409,-112.4512 -112.45117,-112.4512 z m 0,20 c 51.17828,0 92.45117,41.2729 92.45117,92.4512 0,51.17828 -41.27289,92.45117 -92.45117,92.45117 -51.17828,0 -92.45117,-41.27289 -92.45117,-92.45117 0,-51.1783 41.27289,-92.4512 92.45117,-92.4512 z"
     id="circle9"
     inkscape:connector-curvature="0" />
  <path
     style="color:#000000;font-style:normal;font-variant:normal;font-weight:normal;font-stretch:normal;font-size:medium;line-height:normal;font-family:sans-serif;text-indent:0;text-align:start;text-decoration:none;text-decoration-line:none;text-decoration-style:solid;text-decoration-color:#000000;letter-spacing:normal;word-spacing:normal;text-transform:none;direction:ltr;block-progression:tb;writing-mode:lr-tb;baseline-shift:baseline;text-anchor:start;white-space:normal;clip-rule:nonzero;display:inline;overflow:visible;visibility:visible;opacity:1;isolation:auto;mix-blend-mode:normal;color-interpolation:sRGB;color-interpolation-filters:linearRGB;solid-color:#000000;solid-opacity:1;fill:#000000;fill-opacity:1;fill-rule:nonzero;stroke:none;stroke-width:25px;stroke-linecap:butt;stroke-linejoin:miter;stroke-miterlimit:4;stroke-dasharray:none;stroke-dashoffset:0;stroke-opacity:1;color-rendering:auto;image-rendering:auto;shape-rendering:auto;text-rendering:auto;enable-background:accumulate"
     d="m 500,-675 -151.55469,262.5 303.10938,0 z m 0,50 108.25195,187.5 -216.50586,0 z"
     id="path11"
     inkscape:connector-curvature="0"
     sodipodi:nodetypes="cccccccc" />
  <path
     style="color:#000000;font-style:normal;font-variant:normal;font-weight:normal;font-stretch:normal;font-size:medium;line-height:normal;font-family:sans-serif;text-indent:0;text-align:start;text-decoration:none;text-decoration-line:none;text-decoration-style:solid;text-decoration-color:#000000;letter-spacing:normal;word-spacing:normal;text-transform:none;direction:ltr;block-progression:tb;writing-mode:lr-tb;baseline-shift:baseline;text-anchor:start;white-space:normal;clip-rule:nonzero;display:inline;overflow:visible;visibility:visible;opacity:1;isolation:auto;mix-blend-mode:normal;color-interpolation:sRGB;color-interpolation-filters:linearRGB;solid-color:#000000;solid-opacity:1;fill:#eab554;fill-opacity:1;fill-rule:nonzero;stroke:none;stroke-width:20px;stroke-linecap:butt;stroke-linejoin:miter;stroke-miterlimit:4;stroke-dasharray:none;stroke-dashoffset:0;stroke-opacity:1;color-rendering:auto;image-rendering:auto;shape-rendering:auto;text-rendering:auto;enable-background:accumulate"
     d="m 0,-670 -147.22461,255 294.44922,0 z m 0,40 112.58398,195 -225.16796,0 z"
     id="path13"
     inkscape:connector-curvature="0"
     sodipodi:nodetypes="cccccccc" />
  <path
     style="color:#000000;font-style:normal;font-variant:normal;font-weight:normal;font-stretch:normal;font-size:medium;line-height:normal;font-family:sans-serif;text-indent:0;text-align:start;text-decoration:none;text-decoration-line:none;text-decoration-style:solid;text-decoration-color:#000000;letter-spacing:normal;word-spacing:normal;text-transform:none;direction:ltr;block-progression:tb;writing-mode:lr-tb;baseline-shift:baseline;text-anchor:start;white-space:normal;clip-rule:nonzero;display:inline;overflow:visible;visibility:visible;opacity:1;isolation:auto;mix-blend-mode:normal;color-interpolation:sRGB;color-interpolation-filters:linearRGB;solid-color:#000000;solid-opacity:1;fill:#000000;fill-opacity:1;fill-rule:nonzero;stroke:none;stroke-width:25px;stroke-linecap:butt;stroke-linejoin:miter;stroke-miterlimit:4;stroke-dasharray:105.287, 109.287;stroke-dashoffset:0;stroke-opacity:1;color-rendering:auto;image-rendering:auto;shape-rendering:auto;text-rendering:auto;enable-background:accumulate"
     d="m 1099.7838,-57.0957 -0.074,-0.13086 -0.076,-0.13086 -0.166,-0.2793 -21.5196,12.72266 0.08,0.13672 c 15.5723,26.931435 15.484,60.289365 1.0781,87.62894 l -0.2695,0.4824 21.8223,12.1972 0.334,-0.5976 0.074,-0.1309 0.07,-0.1347 c 18.9574,-34.810812 17.8765,-77.374202 -1.3533,-111.7637 z M 1000.1582,89.9531 C 968.64097,90.084784 939.63155,73.174326 923.05859,46.625 l -0.0137,-0.0234 -0.0606,-0.0957 -21.45898,12.8203 0.0937,0.1601 0.0781,0.1309 0.0801,0.1269 c 20.70698,34.254134 58.30613,54.70887 98.06444,55.208 l 0.31635,0 0.076,-0.002 z m -2.35547,-204.87888 -0.60546,0.008 -0.15821,0.002 -0.1582,0.006 c -39.77552,0.9513 -76.27632,23.25754 -96.39256,57.34055 l 21.51953,12.72265 c 15.57275,-27.216838 44.55994,-43.889553 75.67383,-45.07422 l 0.4375,-0.0058 z"
     id="circle15"
     inkscape:connector-curvature="0"
     sodipodi:nodetypes="cccccccccccccccccccccccccccccccccc" />
  <path
     style="color:#000000;font-style:normal;font-variant:normal;font-weight:normal;font-stretch:normal;font-size:medium;line-height:normal;font-family:sans-serif;text-indent:0;text-align:start;text-decoration:none;text-decoration-line:none;text-decoration-style:solid;text-decoration-color:#000000;letter-spacing:normal;word-spacing:normal;text-transform:none;direction:ltr;block-progression:tb;writing-mode:lr-tb;baseline-shift:baseline;text-anchor:start;white-space:normal;clip-rule:nonzero;display:inline;overflow:visible;visibility:visible;opacity:1;isolation:auto;mix-blend-mode:normal;color-interpolation:sRGB;color-interpolation-filters:linearRGB;solid-color:#000000;solid-opacity:1;fill:#eab554;fill-opacity:1;fill-rule:nonzero;stroke:none;stroke-width:20px;stroke-linecap:butt;stroke-linejoin:miter;stroke-miterlimit:4;stroke-dasharray:107.287, 107.287;stroke-dashoffset:0;stroke-opacity:1;color-rendering:auto;image-rendering:auto;shape-rendering:auto;text-rendering:auto;enable-background:accumulate"
     d="m 598.09077,-55.021098 -0.0577,-0.105977 -0.0616,-0.106012 -0.16162,-0.280711 -17.30497,10.02905 0.13468,0.233614 0.0269,0.04711 c 16.06522,28.446761 15.23145,63.599713 -0.80082,91.809007 l -0.0278,0.04859 -0.0793,0.130174 0.002,0.002 -0.0159,0.02916 17.14125,10.298406 0.10703,-0.178753 0.0634,-0.10492 0.0595,-0.104955 c 20.17208,-34.266377 19.94384,-77.09126 0.97495,-111.745783 z m -98.77062,147.471806 -0.17575,-0.0035 C 466.13935,92.228454 435.92198,73.839631 419.47539,45.451356 l -17.30497,10.029059 c 19.62233,34.893187 56.99198,56.119365 96.72116,56.965295 l 0.2539,0.002 0.0762,6.6e-4 z m 1.4971,-204.899028 c -39.97594,-0.41965 -77.15899,21.269445 -97.68344,55.302514 l 17.12731,10.329545 c 16.71869,-28.631259 47.75565,-45.500818 80.63372,-45.632049 z"
     id="circle17"
     inkscape:connector-curvature="0"
     sodipodi:nodetypes="cccccccccccccccccccccccccccccc" />
</svg>
