<?xml version="1.0" encoding="UTF-8" standalone="no"?>
<svg xmlns="http://www.w3.org/2000/svg" viewBox="-250 -250 500 500">
  <path d="M0-170l-34.95 60.54c8.38-2.7 17.12-4.46 26.06-5.15L0-130 87.27 21.15c3-12.58 3.36-25.67.97-38.32L0-170zm-25.33 83.87C-37.73-82.45-49.23-76.2-59-67.8L-147.22 85h69.9c-6.55-5.9-12.44-12.6-17.5-20h-17.76l87.25-151.13zm137.6 110.6c-1.83 8.62-4.7 17.06-8.57 25.15L112.58 65h-174.5c9.4 8.9 20.54 15.75 32.7 20h176.44l-34.95-60.54z" fill="#eab554"/>
  <path d="M0-112.45C-62-112.45-112.45-62-112.45 0c0 5.93.46 11.74 1.35 17.43l20.36-35.27c8.28-42.6 45.67-74.6 90.74-74.6 6.9 0 13.6.74 20.05 2.16L7.4-112.2c-2.45-.16-4.92-.25-7.4-.25zm40.47 7.54l20.3 35.14C80.18-52.83 92.44-27.9 92.44 0c0 24.13-9.18 46.06-24.24 62.5h25.23c12-17.9 19.02-39.4 19.02-62.5 0-47.73-29.92-88.62-71.98-104.9zM-88.23 27.8l-12.62 21.88C-82.47 86.83-44.15 112.45 0 112.45c26.68 0 51.22-9.36 70.53-24.95H30c-9.4 3.2-19.5 4.95-30 4.95-41.48 0-76.46-27.12-88.22-64.65z" fill="#eab554"/>
</svg>
