<?xml version="1.0" encoding="UTF-8" standalone="no"?>
<svg
   xmlns:dc="http://purl.org/dc/elements/1.1/"
   xmlns:cc="http://creativecommons.org/ns#"
   xmlns:rdf="http://www.w3.org/1999/02/22-rdf-syntax-ns#"
   xmlns:svg="http://www.w3.org/2000/svg"
   xmlns="http://www.w3.org/2000/svg"
   xmlns:sodipodi="http://sodipodi.sourceforge.net/DTD/sodipodi-0.dtd"
   xmlns:inkscape="http://www.inkscape.org/namespaces/inkscape"
   version="1.1"
   xml:lang="en"
   viewBox="-250 -250 500 500"
   id="knot"
   inkscape:version="0.91 r13725"
   sodipodi:docname="tricircle_solid.svg">
  <metadata
     id="metadata21">
    <rdf:RDF>
      <cc:Work
         rdf:about="">
        <dc:format>image/svg+xml</dc:format>
        <dc:type
           rdf:resource="http://purl.org/dc/dcmitype/StillImage" />
      </cc:Work>
    </rdf:RDF>
  </metadata>
  <sodipodi:namedview
     pagecolor="#ffffff"
     bordercolor="#666666"
     borderopacity="1"
     objecttolerance="10"
     gridtolerance="10"
     guidetolerance="10"
     inkscape:pageopacity="0"
     inkscape:pageshadow="2"
     inkscape:window-width="1187"
     inkscape:window-height="664"
     id="namedview19"
     showgrid="false"
     inkscape:zoom="0.84474249"
     inkscape:cx="132.62815"
     inkscape:cy="245.71271"
     inkscape:window-x="0"
     inkscape:window-y="46"
     inkscape:window-maximized="0"
     inkscape:current-layer="knot" />
  <defs
     id="defs3">
    <style
       id="style5">
      .top, .bottom { stroke-width: 20px; fill: none; }
      .a, .b { stroke: #EAB554; }
      .white { stroke-width: 25px; fill: none; stroke: #000; }
      .b.top { stroke-dasharray: 107.287,107.287; stroke-dashoffset: -160.931; }
      .b.top.white { stroke-dasharray: 105.287,109.287; stroke-dashoffset: -161.931; }
    </style>
  </defs>
  <path
     style="color:#000000;font-style:normal;font-variant:normal;font-weight:normal;font-stretch:normal;font-size:medium;line-height:normal;font-family:sans-serif;text-indent:0;text-align:start;text-decoration:none;text-decoration-line:none;text-decoration-style:solid;text-decoration-color:#000000;letter-spacing:normal;word-spacing:normal;text-transform:none;direction:ltr;block-progression:tb;writing-mode:lr-tb;baseline-shift:baseline;text-anchor:start;white-space:normal;clip-rule:nonzero;display:inline;overflow:visible;visibility:visible;opacity:1;isolation:auto;mix-blend-mode:normal;color-interpolation:sRGB;color-interpolation-filters:linearRGB;solid-color:#000000;solid-opacity:1;fill:#eab554;fill-opacity:1;fill-rule:nonzero;stroke:none;stroke-width:20px;stroke-linecap:butt;stroke-linejoin:miter;stroke-miterlimit:4;stroke-dasharray:none;stroke-dashoffset:0;stroke-opacity:1;color-rendering:auto;image-rendering:auto;shape-rendering:auto;text-rendering:auto;enable-background:accumulate"
     d="m -3.9e-4,-170 -34.95312,60.54297 c 8.38565,-2.71784 17.12557,-4.46744 26.0664,-5.14844 L -3.9e-4,-130 87.26523,21.14648 c 3.00686,-12.57385 3.36094,-25.663 0.97071,-38.31836 L -3.9e-4,-170 Z m -25.33008,83.87305 c -12.40033,3.68064 -23.90423,9.91326 -33.66797,18.31445 L -147.225,85 l 69.90039,0 c -6.54534,-5.89656 -12.43077,-12.5905 -17.5,-20 l -17.75976,0 87.2539,-151.12695 z M 112.27305,24.46289 c -1.83515,8.62352 -4.68913,17.06962 -8.57032,25.15625 L 112.58359,65 -61.92031,65 c 9.39107,8.89912 20.53722,15.74835 32.69726,20 l 176.44727,0 -34.95117,-60.53711 z"
     id="path4151"
     inkscape:connector-curvature="0" />
  <path
     style="color:#000000;font-style:normal;font-variant:normal;font-weight:normal;font-stretch:normal;font-size:medium;line-height:normal;font-family:sans-serif;text-indent:0;text-align:start;text-decoration:none;text-decoration-line:none;text-decoration-style:solid;text-decoration-color:#000000;letter-spacing:normal;word-spacing:normal;text-transform:none;direction:ltr;block-progression:tb;writing-mode:lr-tb;baseline-shift:baseline;text-anchor:start;white-space:normal;clip-rule:nonzero;display:inline;overflow:visible;visibility:visible;opacity:1;isolation:auto;mix-blend-mode:normal;color-interpolation:sRGB;color-interpolation-filters:linearRGB;solid-color:#000000;solid-opacity:1;fill:#eab554;fill-opacity:1;fill-rule:nonzero;stroke:none;stroke-width:20px;stroke-linecap:butt;stroke-linejoin:miter;stroke-miterlimit:4;stroke-dasharray:none;stroke-dashoffset:0;stroke-opacity:1;color-rendering:auto;image-rendering:auto;shape-rendering:auto;text-rendering:auto;enable-background:accumulate"
     d="M 250 137.54883 C 188.01292 137.54883 137.54883 188.0129 137.54883 250 C 137.54883 255.92573 138.01402 261.74468 138.90234 267.42578 L 159.26367 232.1582 C 167.54477 189.5619 204.92855 157.54883 250 157.54883 C 256.88799 157.54883 263.59421 158.30194 270.04688 159.7207 L 257.38867 137.79688 C 254.94527 137.63745 252.48288 137.54883 250 137.54883 z M 290.4668 145.08984 L 310.75977 180.23828 C 330.1943 197.16827 342.45117 222.1127 342.45117 250 C 342.45117 274.13339 333.27122 296.06093 318.20508 312.5 L 343.42578 312.5 C 355.43447 294.61208 362.45117 273.10806 362.45117 250 C 362.45117 202.27059 332.5283 161.3785 290.4668 145.08984 z M 161.78125 277.80078 L 149.14648 299.68164 C 167.52856 336.83073 205.83607 362.45117 250 362.45117 C 276.68215 362.45117 301.22492 353.09468 320.53125 337.5 L 279.99805 337.5 C 270.5967 340.70838 260.50802 342.45117 250 342.45117 C 208.51532 342.45117 173.54256 315.33168 161.78125 277.80078 z "
     transform="translate(-250,-250)"
     id="path4161" />
</svg>
