<?xml version="1.0" encoding="UTF-8" standalone="no"?>
<svg
   xmlns:dc="http://purl.org/dc/elements/1.1/"
   xmlns:cc="http://creativecommons.org/ns#"
   xmlns:rdf="http://www.w3.org/1999/02/22-rdf-syntax-ns#"
   xmlns:svg="http://www.w3.org/2000/svg"
   xmlns="http://www.w3.org/2000/svg"
   xmlns:sodipodi="http://sodipodi.sourceforge.net/DTD/sodipodi-0.dtd"
   xmlns:inkscape="http://www.inkscape.org/namespaces/inkscape"
   version="1.1"
   xml:lang="en"
   viewBox="-250 -250 500 500"
   id="knot"
   inkscape:version="0.91 r13725"
   sodipodi:docname="ravello_solid.svg">
  <metadata
     id="metadata15">
    <rdf:RDF>
      <cc:Work
         rdf:about="">
        <dc:format>image/svg+xml</dc:format>
        <dc:type
           rdf:resource="http://purl.org/dc/dcmitype/StillImage" />
      </cc:Work>
    </rdf:RDF>
  </metadata>
  <sodipodi:namedview
     pagecolor="#ffffff"
     bordercolor="#666666"
     borderopacity="1"
     objecttolerance="10"
     gridtolerance="10"
     guidetolerance="10"
     inkscape:pageopacity="0"
     inkscape:pageshadow="2"
     inkscape:window-width="1039"
     inkscape:window-height="672"
     id="namedview13"
     showgrid="false"
     inkscape:zoom="0.87705101"
     inkscape:cx="293.61771"
     inkscape:cy="267.75229"
     inkscape:window-x="0"
     inkscape:window-y="23"
     inkscape:window-maximized="0"
     inkscape:current-layer="knot" />
  <path
     style="color:#000000;font-style:normal;font-variant:normal;font-weight:normal;font-stretch:normal;font-size:medium;line-height:normal;font-family:sans-serif;text-indent:0;text-align:start;text-decoration:none;text-decoration-line:none;text-decoration-style:solid;text-decoration-color:#000000;letter-spacing:normal;word-spacing:normal;text-transform:none;direction:ltr;block-progression:tb;writing-mode:lr-tb;baseline-shift:baseline;text-anchor:start;white-space:normal;clip-rule:nonzero;display:inline;overflow:visible;visibility:visible;opacity:1;isolation:auto;mix-blend-mode:normal;color-interpolation:sRGB;color-interpolation-filters:linearRGB;solid-color:#000000;solid-opacity:1;fill:#ae8ed8;fill-opacity:1;fill-rule:nonzero;stroke:none;stroke-width:25px;stroke-linecap:butt;stroke-linejoin:miter;stroke-miterlimit:4;stroke-dasharray:none;stroke-dashoffset:0;stroke-opacity:1;color-rendering:auto;image-rendering:auto;shape-rendering:auto;text-rendering:auto;enable-background:accumulate"
     d="m 237.50391,66.839844 c 0.008,21.182219 -17.05246,37.296026 -37.82028,37.820276 l -12.18359,0.30859 0,80.03125 25,0 0,-56.5957 0.082,-0.0137 0.30664,-0.0703 c 14.87849,-3.07091 27.68924,-11.67113 37.00586,-23.52534 l 0.10547,-0.13281 0.10547,0.13281 c 9.10735,12.15692 22.31023,20.13041 37.00586,23.52534 l 0.30664,0.0703 0.082,0.0137 0,15.17382 c 4.29287,0.0127 8.58614,-0.0196 12.87891,0.004 4.07674,0.0312 8.1481,0.48641 12.12109,1.4025 l 0,-40.01563 -12.18359,-0.30859 c -21.1818,0.008 -37.29648,-17.05209 -37.82028,-37.820276 z M 215,146.07812 l 0,25 9.11133,0 C 239.54016,186.50386 250.7717,197.7385 265.5332,212.5 l 19.4668,0 0,-25 -9.11133,0 C 261.58481,173.19959 246.7602,158.37155 234.4668,146.07812 Z m 50.5332,0 -13.76562,13.76563 17.67773,17.67773 c 2.1478,-2.14778 4.29558,-4.29557 6.44336,-6.44336 l 23.95313,0 c 10.25461,-0.0383 19.76946,5.59221 24.84352,13.9221 l 27.02734,0 c -7.17429,-22.51769 -26.58153,-38.28103 -51.39653,-38.91804 -12.09953,-0.008 -24.42173,-0.004 -34.78293,-0.004 z M 185,148.28711 c -22.51525,7.1798 -38.2809,26.57456 -38.91809,51.39648 -0.01,11.59425 -0.004,23.18886 -0.004,34.78321 l 13.76563,13.76562 17.67773,-17.67773 c -2.14778,-2.1478 -4.29557,-4.29558 -6.44336,-6.44336 l 0,-23.95313 c -0.0387,-10.25964 5.59798,-19.77229 13.92213,-24.84351 z m 102.5,25.29101 0,60.88868 13.76562,13.76562 17.67774,-17.67773 -6.44336,-6.44336 0,-47.39258 c -3.89682,-2.15621 -8.23847,-3.02815 -12.65039,-3.14066 z m -56.94531,7.47852 -6.44336,6.44336 -47.39258,0 c -2.15621,3.89682 -3.02815,8.23847 -3.14066,12.65039 l 0,12.34961 60.88868,0 13.76562,-13.76562 z M 104.96875,187.5 l -0.30859,12.18359 c 0.008,21.1818 -17.05209,37.29648 -37.820276,37.82028 l 0,24.99218 c 21.182219,-0.008 37.296026,17.05246 37.820276,37.82028 l 0.30859,12.18359 80.03125,0 0,-25 -56.5957,0 -0.0137,-0.082 -0.0703,-0.30664 c -3.07091,-14.87849 -11.67113,-27.68924 -23.52534,-37.00586 l -0.13281,-0.10547 0.13281,-0.10547 c 12.15692,-9.10735 20.13041,-22.31023 23.52534,-37.00586 l 0.0703,-0.30664 0.0137,-0.082 15.17382,0 c 0.004,-4.29294 -0.007,-8.58605 0.004,-12.87891 0.20217,-4.57224 0.45808,-8.0252 1.4025,-12.12109 -13.33862,0 -26.67725,0 -40.01587,2e-5 z m 210.03125,0 0,25 56.5957,0 0.0137,0.082 0.0703,0.30664 c 3.07091,14.87849 11.67113,27.68924 23.52534,37.00586 l 0.13281,0.10547 -0.13281,0.10547 c -12.15692,9.10735 -20.13041,22.31023 -23.52534,37.00586 l -0.0703,0.30664 -0.0137,0.082 -15.17382,0 c -0.0127,4.29287 0.0196,8.58614 -0.004,12.87891 -0.0312,4.07674 -0.48641,8.1481 -1.4025,12.12109 l 40.01563,0 0.30859,-12.18359 c -0.008,-21.18181 17.05209,-37.29648 37.82028,-37.82028 l 0,-24.99218 c -21.18222,0.008 -37.29603,-17.05246 -37.82028,-37.82028 l -0.30859,-12.18359 c -27.36234,-4e-5 -56.33148,5e-5 -80.03101,-2e-5 z m -127.5,27.5 0,9.11133 c -15.4381,15.43501 -26.67443,26.67444 -41.42188,41.42187 l 0,19.4668 25,0 0,-9.11133 C 185.37897,261.58678 200.20742,246.75933 212.5,234.4668 L 212.5,215 Z m 141.42188,0 0,9.11133 C 314.60054,238.43029 299.80112,253.23451 287.5,265.5332 l 0,19.4668 25,0 0,-9.11133 c 15.44784,-15.44783 26.69303,-26.69304 41.42188,-41.42187 l 0,-19.4668 z m -130.1875,36.76758 -17.67774,17.67773 6.44336,6.44336 0,47.39258 c 3.89682,2.15621 8.23847,3.02815 12.65039,3.14066 l 12.34961,0 0,-60.88868 z m 141.42187,0 -17.67773,17.67773 6.44336,6.44336 0,23.95313 c 0.038,10.25196 -5.58888,19.76799 -13.9221,24.84352 l 0,27.02734 c 22.51997,-7.16899 38.28124,-26.58811 38.91808,-51.39648 0.01,-11.59425 0.004,-23.18886 0.004,-34.78321 -4.65276,-4.65275 -9.68682,-9.68689 -13.76561,-13.76539 z M 215,287.5 l 0,25 9.11133,0 c 15.44221,15.44221 26.68366,26.68365 41.42187,41.42188 l 19.4668,0 0,-25 -9.11133,0 C 261.57378,314.60697 246.76473,299.79794 234.4668,287.5 Z m 50.5332,0 c -4.58678,4.5903 -9.17663,9.17753 -13.76562,13.76562 l 17.67773,17.67774 6.44336,-6.44336 47.39258,0 c 2.15621,-3.89682 3.02815,-8.23847 3.14066,-12.65039 l 0,-12.34961 z M 148.28711,315 c 7.16292,22.51446 26.58813,38.28124 51.39648,38.91808 11.59425,0.01 23.18886,0.004 34.78321,0.004 4.58853,-4.58855 9.17708,-9.17709 13.76562,-13.76563 l -17.67773,-17.67773 -6.44336,6.44336 -23.95313,0 c -10.25175,0.038 -19.76783,-5.5888 -24.84352,-13.92184 z m 139.21289,0 0,56.5957 -0.082,0.0137 -0.30664,0.0703 c -14.87849,3.07091 -27.68924,11.67113 -37.00586,23.52534 l -0.10547,0.13281 -0.10547,-0.13281 C 240.78721,383.04812 227.58433,375.07463 212.8887,371.6797 l -0.30664,-0.0703 -0.082,-0.0137 0,-15.17382 c -4.50406,0.001 -8.99988,4.2e-4 -12.87891,-0.004 -4.07674,-0.0312 -8.1481,-0.48641 -12.12109,-1.4025 l 0,40.01563 12.18359,0.30859 c 21.18181,-0.008 37.29648,17.05209 37.82028,37.82028 l 24.99218,0 c -0.008,-21.18222 17.05246,-37.29603 37.82028,-37.82028 l 12.18359,-0.30859 0,-80.03125 z"
     transform="translate(-250,-250)"
     id="path7"
     inkscape:connector-curvature="0"
     sodipodi:nodetypes="ccccccccccccccccccccccccccccccccccccccccccccccccccccccccccccccccccccccccccccccccccccccccccccccccccccccccccccccccccccccccccccccccccccccccccccccccccccccccccccccccccccccccccccccccccccccccccccc" />
</svg>
