<svg xmlns="http://www.w3.org/2000/svg" xml:lang="en" viewBox="-250 -250 500 500">
  <path d="M-12.5-183.16c0 21.18-17.05 37.3-37.82 37.82l-12.18.3V-65h25v-56.6h.08l.3-.08c14.9-3.07 27.7-11.67 37-23.53l.12-.14.1.13c9.1 12.15 22.32 20.13 37 23.52l.32.07h.08v15.18h12.88c4.08.03 8.15.5 12.12 1.4v-40l-12.18-.32c-21.2 0-37.3-17.05-37.82-37.82zM-35-103.92v25h9.1L15.54-37.5H35v-25h-9.1l-41.43-41.42zM1.77-90.16l17.68 17.68 6.44-6.44h23.94C60.1-78.96 69.6-73.32 74.7-65h27c-7.16-22.52-26.57-38.28-51.38-38.92h-34.8zM-65-101.7c-22.52 7.17-38.28 26.56-38.92 51.38v34.8l13.76 13.75 17.68-17.68-6.44-6.44v-23.94C-78.96-60.1-73.32-69.6-65-74.7zM37.5-76.43v60.9L51.27-1.78l17.67-17.68-6.44-6.44v-47.38c-3.9-2.16-8.24-3.03-12.65-3.14zm-56.95 7.48l-6.44 6.44h-47.38c-2.16 3.9-3.03 8.24-3.14 12.65v12.35h60.9l13.75-13.77zm-125.58 6.44l-.3 12.18c0 21.2-17.06 37.3-37.83 37.82v25c21.18 0 37.3 17.05 37.82 37.82l.3 12.18H-65v-25h-56.6v-.08l-.08-.3c-3.07-14.9-11.67-27.7-23.53-37l-.14-.12.13-.1c12.15-9.1 20.13-22.32 23.52-37l.07-.32v-.08h15.18v-12.88c.2-4.57.46-8.02 1.4-12.12zM65-62.5v25h56.6v.08l.08.3c3.07 14.9 11.67 27.7 23.53 37l.14.12-.13.1c-12.15 9.1-20.13 22.32-23.52 37l-.07.32v.08h-15.18v12.88c-.03 4.08-.5 8.15-1.4 12.12h40l.32-12.18c0-21.2 17.05-37.3 37.82-37.82v-25c-21.18 0-37.3-17.05-37.82-37.82l-.3-12.18zM-62.5-35v9.1l-41.42 41.43V35h25v-9.1l41.42-41.43V-35zm141.42 0v9.1L37.5 15.54V35h25v-9.1l41.42-41.43V-35zM-51.28 1.77l-17.66 17.68 6.44 6.44v47.38c3.9 2.16 8.24 3.03 12.65 3.14h12.35v-60.9zm141.44 0L72.48 19.45l6.44 6.44v23.94C78.96 60.1 73.32 69.6 65 74.7v27c22.52-7.16 38.28-26.58 38.92-51.38v-34.8zM-35 37.5v25h9.1l41.43 41.42H35v-25h-9.1L-15.54 37.5zm50.53 0c-4.58 4.6-9.17 9.18-13.76 13.77l17.68 17.67 6.44-6.44h47.38c2.16-3.9 3.03-8.24 3.14-12.65V37.5zM-101.7 65c7.15 22.5 26.58 38.28 51.38 38.92h34.8l13.75-13.76-17.68-17.68-6.44 6.44h-23.94C-60.1 78.96-69.6 73.32-74.7 65zm139.2 0v56.6h-.08l-.3.08c-14.9 3.07-27.7 11.67-37 23.53l-.12.14-.1-.13c-9.1-12.15-22.32-20.13-37-23.52l-.32-.07h-.08v-15.18h-12.88c-4.08-.03-8.15-.5-12.12-1.4v40l12.18.32c21.2 0 37.3 17.05 37.82 37.82h25c0-21.18 17.05-37.3 37.82-37.82l12.18-.3V65z" fill="#ae8ed8"/>
</svg>
