<?xml version="1.0" standalone="no"?>
<!DOCTYPE svg PUBLIC "-//W3C//DTD SVG 1.1//EN" "http://www.w3.org/Graphics/SVG/1.1/DTD/svg11.dtd">
<svg xmlns:xlink="http://www.w3.org/1999/xlink" version="1.1" xml:lang="en" viewBox="-250 -250 500 500" id="knot" xmlns="http://www.w3.org/2000/svg">
  <defs>
    <style type="text/css"><![CDATA[
      .top, .bottom { stroke-width: 25px; fill: none; }
      .top { stroke: rgb(224, 153, 137); }
      .bottom { stroke: rgb(232, 225, 211); }
      .top { stroke-dasharray: 40, 99, 99, 60.48; stroke-dashoffset: -10; }
    ]]></style>
    <path id="path-a" d="M 20.711 50.0 L 91.421 50.0 A 50 50 0 0 0 91.421 -50.0 L 20.711 -50.0 L -29.289 -100.0 A 50 50 0 0 0 -100.0 -29.289 L -50.0 20.711 L -50.0 91.421 A 50 50 0 0 0 50.0 91.421 L 50.0 20.711 L 100.0 -29.289 A 50 50 0 0 0 29.289 -100.0 L -20.711 -50.0 L -91.421 -50.0 A 50 50 0 0 0 -91.421 50.0 L -20.711 50.0 L 29.289 100.0 A 50 50 0 0 0 100.0 29.289 L 50.0 -20.711 L 50.0 -91.421 A 50 50 0 0 0 -50.0 -91.421 L -50.0 -20.711 L -100.0 29.289 A 50 50 0 0 0 -29.289 100.0 Z"/>
  </defs>
  <use xlink:href="#path-a" class="bottom"/>
  <use xlink:href="#path-a" class="top"/>
</svg>
